<svg width="29" height="23" viewBox="0 0 29 23" fill="none" xmlns="http://www.w3.org/2000/svg">
<path d="M14.1075 12.5168L4.49278 22.1316C3.82823 22.7961 2.75364 22.7961 2.09616 22.1316L0.498412 20.5338C-0.166137 19.8693 -0.166137 18.7947 0.498412 18.1372L7.31357 11.3221L0.498412 4.50691C-0.166137 3.84236 -0.166137 2.76777 0.498412 2.1103L2.08909 0.498411C2.75364 -0.166137 3.82823 -0.166137 4.48571 0.498411L14.1005 10.1132C14.7721 10.7777 14.7721 11.8523 14.1075 12.5168ZM27.6813 10.1132L18.0665 0.498411C17.402 -0.166137 16.3274 -0.166137 15.6699 0.498411L14.0722 2.09616C13.4076 2.7607 13.4076 3.83529 14.0722 4.49277L20.8873 11.3079L14.0722 18.1231C13.4076 18.7876 13.4076 19.8622 14.0722 20.5197L15.6699 22.1174C16.3345 22.782 17.4091 22.782 18.0665 22.1174L27.6813 12.5027C28.3458 11.8523 28.3458 10.7777 27.6813 10.1132Z" fill="#EF6464"/>
</svg>
